<?xml version="1.0" encoding="UTF-8"?>
<svg version="1.1" xmlns="http://www.w3.org/2000/svg" width="500" height="500">
<path d="M0 0 C165 0 330 0 500 0 C500 165 500 330 500 500 C335 500 170 500 0 500 C0 335 0 170 0 0 Z " fill="#151C2B" transform="translate(0,0)"/>
<path d="M0 0 C3.96 0 7.92 0 12 0 C12.515625 1.299375 13.03125 2.59875 13.5625 3.9375 C15.50835957 8.80561131 17.4996339 13.65412508 19.5 18.5 C21.66207949 23.73781742 23.80503935 28.98115204 25.890625 34.25 C26.84327873 36.61150785 27.81550185 38.96284683 28.796875 41.3125 C29.11785156 42.08335937 29.43882812 42.85421875 29.76953125 43.6484375 C30.41500702 45.1965507 31.06337106 46.74346333 31.71484375 48.2890625 C34 53.77742904 34 53.77742904 34 56 C29.71 56 25.42 56 21 56 C19.68 52.04 18.36 48.08 17 44 C9.41 43.67 1.82 43.34 -6 43 C-6.33 44.98 -6.66 46.96 -7 49 C-7.86173773 51.42000959 -8.92410684 53.66110182 -10 56 C-13.96 56 -17.92 56 -22 56 C-20.57120742 51.56464863 -18.93781009 47.25554732 -17.1875 42.9375 C-14.85756261 37.16047372 -12.58781304 31.36396651 -10.359375 25.546875 C-8.68363075 21.17453082 -7.0014325 16.80476552 -5.3125 12.4375 C-5.01480713 11.66301514 -4.71711426 10.88853027 -4.41040039 10.09057617 C-4.12672607 9.35814697 -3.84305176 8.62571777 -3.55078125 7.87109375 C-3.29981689 7.22068115 -3.04885254 6.57026855 -2.7902832 5.90014648 C-1.9548321 3.89139889 -0.97293838 1.94587676 0 0 Z " fill="#DA53AA" transform="translate(232,278)"/>
<path d="M0 0 C3.526875 -0.0825 7.05375 -0.165 10.6875 -0.25 C11.79053467 -0.28641602 12.89356934 -0.32283203 14.0300293 -0.36035156 C21.27163058 -0.44248442 21.27163058 -0.44248442 25.125 1.8984375 C27.84050157 4.94206217 28.84496483 6.811397 29.375 10.875 C28.89207914 14.89934049 27.56149404 16.88466942 25 20 C19.47740114 24.08442207 14.66039507 23.21957346 8 23 C8 27.62 8 32.24 8 37 C5.36 37 2.72 37 0 37 C0 24.79 0 12.58 0 0 Z " fill="#C863C3" transform="translate(257,195)"/>
<path d="M0 0 C2.31 0 4.62 0 7 0 C8.98650744 2.20270463 10.21847957 3.90315856 11.625 6.4375 C12.15867187 7.32598633 12.15867187 7.32598633 12.703125 8.23242188 C15.58707462 13.08222924 18.26173024 18.07111443 21 23 C21.33 15.41 21.66 7.82 22 0 C24.31 0 26.62 0 29 0 C29 12.21 29 24.42 29 37 C21 37 21 37 18.8984375 35.07226562 C18.14433594 33.75258789 18.14433594 33.75258789 17.375 32.40625 C16.81425781 31.45878906 16.25351563 30.51132813 15.67578125 29.53515625 C15.12277344 28.53355469 14.56976563 27.53195313 14 26.5 C13.41605469 25.49839844 12.83210938 24.49679688 12.23046875 23.46484375 C10.7937505 20.99180414 9.39330585 18.4977556 8 16 C7.67 22.93 7.34 29.86 7 37 C4.69 37 2.38 37 0 37 C0 24.79 0 12.58 0 0 Z " fill="#C073DE" transform="translate(86,195)"/>
<path d="M0 0 C2.31 0 4.62 0 7 0 C7 12.21 7 24.42 7 37 C5.02 37 3.04 37 1 37 C1 36.01 1 35.02 1 34 C0.360625 34.495 -0.27875 34.99 -0.9375 35.5 C-5.00892006 37.49416493 -8.54127568 37.91011414 -13 37 C-15.4375 34.6875 -15.4375 34.6875 -17 32 C-17.66 31.01 -18.32 30.02 -19 29 C-19.71989336 23.66776662 -19.64220003 19.26225523 -17.1875 14.4375 C-15.02640873 12.02942687 -13.37272006 10.18819549 -10.0625 9.734375 C-9.381875 9.73953125 -8.70125 9.7446875 -8 9.75 C-7.319375 9.74484375 -6.63875 9.7396875 -5.9375 9.734375 C-4 10 -4 10 -1 12 C-0.67 8.04 -0.34 4.08 0 0 Z " fill="#C966C9" transform="translate(243,195)"/>
<path d="M0 0 C2.31 0 4.62 0 7 0 C7 0.66 7 1.32 7 2 C7.99 1.34 8.98 0.68 10 0 C14.47208083 -0.72022276 17.98669453 -0.58211165 21.9375 1.6875 C26.03515418 6.28183953 26.44041336 10.56116405 26.32421875 16.55859375 C25.84632223 20.15721216 24.3599082 22.30296206 22 25 C18.86588698 27.08940868 18.02549528 27.27364412 14.4375 27.25 C13.25994141 27.25773437 13.25994141 27.25773437 12.05859375 27.265625 C10 27 10 27 8 25 C7.67 28.3 7.34 31.6 7 35 C4.69 35 2.38 35 0 35 C0 23.45 0 11.9 0 0 Z " fill="#D258B1" transform="translate(389,205)"/>
<path d="M0 0 C3.96 0 7.92 0 12 0 C12 18.48 12 36.96 12 56 C8.04 56 4.08 56 0 56 C0 37.52 0 19.04 0 0 Z " fill="#D44FA1" transform="translate(271,278)"/>
<path d="M0 0 C3 1.5 3 1.5 5 3 C5.60521484 2.27103516 5.60521484 2.27103516 6.22265625 1.52734375 C8.43123982 -0.37058191 9.55943962 -0.43264661 12.4375 -0.4375 C13.19933594 -0.45683594 13.96117187 -0.47617188 14.74609375 -0.49609375 C17.88070987 0.19384775 18.98676538 1.53323307 21 4 C21.45410156 6.56542969 21.45410156 6.56542969 21.390625 9.421875 C21.37773437 10.44667969 21.36484375 11.47148437 21.3515625 12.52734375 C21.31804687 13.59082031 21.28453125 14.65429688 21.25 15.75 C21.23195313 16.82894531 21.21390625 17.90789062 21.1953125 19.01953125 C21.14821415 21.68058788 21.082456 24.33984254 21 27 C18.69 27 16.38 27 14 27 C13.505 17.1 13.505 17.1 13 7 C11.02 7 9.04 7 7 7 C5.88176185 9.23647631 5.80603939 10.64891529 5.68359375 13.1328125 C5.64169922 13.93847656 5.59980469 14.74414062 5.55664062 15.57421875 C5.51732422 16.41597656 5.47800781 17.25773437 5.4375 18.125 C5.39431641 18.97449219 5.35113281 19.82398438 5.30664062 20.69921875 C5.20045764 22.79928223 5.09971503 24.89961948 5 27 C2.69 27 0.38 27 -2 27 C-2.33 20.4 -2.66 13.8 -3 7 C-4.65 6.67 -6.3 6.34 -8 6 C-10.3968665 8.3968665 -10.28281133 9.07028314 -10.4140625 12.3515625 C-10.47207031 13.62773437 -10.47207031 13.62773437 -10.53125 14.9296875 C-10.5621875 15.81914062 -10.593125 16.70859375 -10.625 17.625 C-10.68300781 18.97078125 -10.68300781 18.97078125 -10.7421875 20.34375 C-10.83659357 22.5622927 -10.92216748 24.78082403 -11 27 C-13.31 27 -15.62 27 -18 27 C-18 18.42 -18 9.84 -18 1 C-16.02 1 -14.04 1 -12 1 C-12 1.66 -12 2.32 -12 3 C-11.505 2.505 -11.01 2.01 -10.5 1.5 C-7.05743189 -0.56554086 -3.87453431 -0.59844292 0 0 Z " fill="#D35CB9" transform="translate(361,205)"/>
<path d="M0 0 C4.4331235 2.13739883 7.12530646 4.4174158 9 9 C9.54066369 14.67696875 9.10049582 18.06217333 6 23 C3.52751324 25.98758816 1.40792388 26.84528309 -2.48828125 27.2734375 C-11.05563991 27.58153062 -11.05563991 27.58153062 -14.5625 24.8125 C-17.90189232 20.95935501 -18.85304349 18.61652164 -19.3125 13.5625 C-18.86739904 8.4883491 -17.25150316 5.48616 -14 1.625 C-9.41056927 -0.86094164 -5.10446385 -0.74205862 0 0 Z " fill="#CC5EBB" transform="translate(329,205)"/>
<path d="M0 0 C3.44468987 1.68733792 5.48822905 4.09276969 7.375 7.4375 C8 10 8 10 8 16 C2.06 16 -3.88 16 -10 16 C-9.01 17.65 -8.02 19.3 -7 21 C-4.45672892 21.66685938 -4.45672892 21.66685938 -2 21 C-1.34 20.01 -0.68 19.02 0 18 C3.125 17.8125 3.125 17.8125 6 18 C6 22 6 22 4.25 24.75 C-0.61787371 28.12006642 -5.25380598 28.00935912 -11 27 C-14.48242391 24.47353559 -15.65226822 23.04319535 -17 19 C-18.00903614 9.01054217 -18.00903614 9.01054217 -15.953125 4.9140625 C-11.419323 -0.55316933 -6.7480087 -0.92112389 0 0 Z " fill="#BF6ED7" transform="translate(138,205)"/>
<path d="M0 0 C3.23857278 1.30921027 4.60256422 2.52033613 6.8125 5.1875 C8 8 8 8 8 16 C2.06 16 -3.88 16 -10 16 C-9.01 17.65 -8.02 19.3 -7 21 C-4.45672892 21.66685938 -4.45672892 21.66685938 -2 21 C-1.34 20.01 -0.68 19.02 0 18 C2.31 18.33 4.62 18.66 7 19 C6.69895795 21.80972581 5.95275592 23.05669289 4.125 25.25 C-0.50346127 27.84193831 -4.81331228 27.92034459 -10 27 C-13.22344672 24.5659688 -14.7746971 22.33795435 -17 19 C-17.83798923 12.41931983 -16.84283058 7.59148051 -13 2.1875 C-8.72358078 -0.93072235 -5.13051167 -0.76915414 0 0 Z " fill="#C568CD" transform="translate(212,205)"/>
<path d="M0 0 C2.71345528 1.7818898 3.41334548 3.06175089 5 6 C5 6.66 5 7.32 5 8 C1.625 8.125 1.625 8.125 -2 8 C-2.66 7.34 -3.32 6.68 -4 6 C-7.08347826 5.83318891 -7.08347826 5.83318891 -10 6 C-10 6.99 -10 7.98 -10 9 C-9.18015625 9.17015625 -8.3603125 9.3403125 -7.515625 9.515625 C-5.89914063 9.87914062 -5.89914063 9.87914062 -4.25 10.25 C-3.18265625 10.48203125 -2.1153125 10.7140625 -1.015625 10.953125 C2.32319974 12.11219887 3.86605694 13.20308433 6 16 C6 19.81923229 5.66879141 22.10186286 3.37109375 25.1875 C0.17147078 27.63334029 -1.94562916 27.53408214 -5.9375 27.5 C-7.14277344 27.5103125 -8.34804687 27.520625 -9.58984375 27.53125 C-13.54136758 26.91566324 -15.19903238 25.80096762 -18 23 C-18.8125 20.75 -18.8125 20.75 -19 19 C-15.535 18.505 -15.535 18.505 -12 18 C-11.34 19.32 -10.68 20.64 -10 22 C-6.535 21.505 -6.535 21.505 -3 21 C-2.67 20.01 -2.34 19.02 -2 18 C-2.59167969 17.89042969 -3.18335938 17.78085938 -3.79296875 17.66796875 C-9.49813927 16.52321186 -13.78543255 15.21456745 -18 11 C-18.58909219 7.21297878 -18.26202646 5.44641546 -16.3125 2.125 C-11.14397728 -1.19065608 -5.96081961 -1.10668226 0 0 Z " fill="#C16CD3" transform="translate(168,205)"/>
<path d="M0 0 C0.33 2.64 0.66 5.28 1 8 C2.32 8.33 3.64 8.66 5 9 C5 10.65 5 12.3 5 14 C3.68 14 2.36 14 1 14 C1 19.28 1 24.56 1 30 C2.32 30 3.64 30 5 30 C5 31.65 5 33.3 5 35 C3.56416999 35.10836453 2.1259798 35.18576167 0.6875 35.25 C-0.11300781 35.29640625 -0.91351563 35.3428125 -1.73828125 35.390625 C-4 35 -4 35 -5.78125 33.53125 C-7.58552241 29.78391499 -7.32002867 26.34819411 -7.1875 22.25 C-7.17396484 21.45722656 -7.16042969 20.66445312 -7.14648438 19.84765625 C-7.11125223 17.89814436 -7.05744821 15.94898374 -7 14 C-7.99 14 -8.98 14 -10 14 C-10 12.02 -10 10.04 -10 8 C-9.01 8 -8.02 8 -7 8 C-7.103125 7.236875 -7.20625 6.47375 -7.3125 5.6875 C-7.209375 4.800625 -7.10625 3.91375 -7 3 C-4.6167054 1.18116991 -3.04181663 0 0 0 Z " fill="#C169CE" transform="translate(187,197)"/>
<path d="M0 0 C0 2.64 0 5.28 0 8 C1.65 8 3.3 8 5 8 C5 9.98 5 11.96 5 14 C3.35 14 1.7 14 0 14 C0.33 18.95 0.66 23.9 1 29 C2.32 29.33 3.64 29.66 5 30 C5 31.65 5 33.3 5 35 C3.56344146 35.08131463 2.1255517 35.13933559 0.6875 35.1875 C-0.51326172 35.23970703 -0.51326172 35.23970703 -1.73828125 35.29296875 C-4.57436494 34.9256004 -5.25028188 34.21879149 -7 32 C-7.34057617 30.00708008 -7.34057617 30.00708008 -7.29296875 27.76953125 C-7.28330078 26.96708984 -7.27363281 26.16464844 -7.26367188 25.33789062 C-7.23853516 24.50451172 -7.21339844 23.67113281 -7.1875 22.8125 C-7.17396484 21.96751953 -7.16042969 21.12253906 -7.14648438 20.25195312 C-7.11115799 18.16769616 -7.05735139 16.08376723 -7 14 C-7.99 14 -8.98 14 -10 14 C-10 12.02 -10 10.04 -10 8 C-9.01 8 -8.02 8 -7 8 C-7.103125 7.236875 -7.20625 6.47375 -7.3125 5.6875 C-7.209375 4.800625 -7.10625 3.91375 -7 3 C-4.6167054 1.18116991 -3.04181663 0 0 0 Z " fill="#D756B0" transform="translate(428,197)"/>
<path d="M0 0 C2.31 0 4.62 0 7 0 C7.33 0.66 7.66 1.32 8 2 C8.66 1.34 9.32 0.68 10 0 C13.0625 -0.1875 13.0625 -0.1875 16 0 C16.33 0.33 16.66 0.66 17 1 C16.71269945 3.33944736 16.38063221 5.6739143 16 8 C15.030625 7.979375 14.06125 7.95875 13.0625 7.9375 C10.12534105 7.64381501 10.12534105 7.64381501 9 9 C8.84417697 10.34015221 8.74955858 11.68758903 8.68359375 13.03515625 C8.64169922 13.84404297 8.59980469 14.65292969 8.55664062 15.48632812 C8.51732422 16.33646484 8.47800781 17.18660156 8.4375 18.0625 C8.39431641 18.91650391 8.35113281 19.77050781 8.30664062 20.65039062 C8.20023298 22.76672037 8.09958269 24.88333813 8 27 C5.36 27 2.72 27 0 27 C0 18.09 0 9.18 0 0 Z " fill="#C55EBB" transform="translate(291,205)"/>
<path d="M0 0 C2.875 0.875 2.875 0.875 4.875 2.875 C5.17578125 5.1171875 5.17578125 5.1171875 5.1875 7.75 C5.20425781 8.61367187 5.22101563 9.47734375 5.23828125 10.3671875 C4.8042816 13.36318505 3.97926023 14.72145967 1.875 16.875 C-1.25024313 17.33076462 -3.17967098 17.56898272 -5.78515625 15.65625 C-8.00981704 12.69868346 -7.59297342 9.84375303 -7.47265625 6.265625 C-7.125 3.875 -7.125 3.875 -5.5 1.1875 C-3.125 -0.125 -3.125 -0.125 0 0 Z " fill="#1E2032" transform="translate(325.125,210.125)"/>
<path d="M0 0 C3.02665495 1.24170459 3.97227928 2.06955856 5.4375 5 C5.7384388 8.37051452 5.67372865 11.10233113 4.8125 14.375 C2.73252726 16.83314961 0.5345372 16.73069242 -2.5625 17 C-5.44625157 14.11624843 -6.88075682 11.98885835 -7.0625 7.9375 C-6.5625 4 -6.5625 4 -4.875 1.4375 C-2.5625 0 -2.5625 0 0 0 Z " fill="#1F2033" transform="translate(402.5625,210)"/>
<path d="M0 0 C2.9375 0.875 2.9375 0.875 4.9375 3.875 C5.51653312 7.95831147 5.49285216 11.67660849 3.75 15.4375 C1.9375 16.875 1.9375 16.875 -0.5625 17.3125 C-3.54232252 16.79103106 -4.26271998 16.26613632 -6.0625 13.875 C-6.4609375 11.28125 -6.4609375 11.28125 -6.4375 8.375 C-6.44523438 7.4159375 -6.45296875 6.456875 -6.4609375 5.46875 C-6.0625 2.875 -6.0625 2.875 -4.73046875 1.0234375 C-3.0625 -0.125 -3.0625 -0.125 0 0 Z " fill="#1B1F31" transform="translate(238.0625,210.125)"/>
<path d="M0 0 C3.09308516 2.55245996 3.98199617 5.2310685 5.1875 9 C5.53167969 10.051875 5.87585938 11.10375 6.23046875 12.1875 C7 15 7 15 7 18 C2.71 18 -1.58 18 -6 18 C-4.76281145 11.50476013 -2.89324549 5.94098468 0 0 Z " fill="#212134" transform="translate(237,293)"/>
<path d="M0 0 C1.588125 -0.061875 3.17625 -0.12375 4.8125 -0.1875 C6.15248047 -0.23970703 6.15248047 -0.23970703 7.51953125 -0.29296875 C10 0 10 0 11.8046875 1.3515625 C13.47948435 3.66124965 13.35691675 5.21604938 13 8 C11 10 11 10 8.3984375 10.1953125 C7.40070313 10.17210937 6.40296875 10.14890625 5.375 10.125 C3.87066406 10.09792969 3.87066406 10.09792969 2.3359375 10.0703125 C1.56507813 10.04710937 0.79421875 10.02390625 0 10 C0 6.7 0 3.4 0 0 Z " fill="#1D1F32" transform="translate(265,201)"/>
<path d="M0 0 C2 2 2 2 2 5 C-1.3 5 -4.6 5 -8 5 C-7.625 2.5625 -7.625 2.5625 -7 0 C-4.29393021 -1.35303489 -2.8671629 -0.7884698 0 0 Z " fill="#242239" transform="translate(211,211)"/>
<path d="M0 0 C3.0625 0.1875 3.0625 0.1875 5.0625 2.1875 C6.37997324 2.88498583 7.71164193 3.55709957 9.0625 4.1875 C5.70922361 6.42301759 5.15506343 6.36033528 1.375 5.8125 C0.16263672 5.64621094 0.16263672 5.64621094 -1.07421875 5.4765625 C-1.99654297 5.33347656 -1.99654297 5.33347656 -2.9375 5.1875 C-3.5 3.25 -3.5 3.25 -3.9375 1.1875 C-2.9375 0.1875 -2.9375 0.1875 0 0 Z " fill="#322948" transform="translate(160.9375,209.8125)"/>
<path d="M0 0 C3.125 0.375 3.125 0.375 6 1 C6.33 2.65 6.66 4.3 7 6 C3.7 6 0.4 6 -3 6 C-2 2 -2 2 0 0 Z " fill="#202137" transform="translate(131,210)"/>
<path d="M0 0 C4.62 0 9.24 0 14 0 C12.68 0.33 11.36 0.66 10 1 C8.71563266 2.9837767 8.71563266 2.9837767 8 5 C3.48279689 5.36625971 3.48279689 5.36625971 1.1875 3.625 C0 2 0 2 0 0 Z " fill="#212137" transform="translate(128,222)"/>
<path d="M0 0 C4.29 0.33 8.58 0.66 13 1 C12.01 1.33 11.02 1.66 10 2 C8.79117904 4.00016466 8.79117904 4.00016466 8 6 C5.6875 6.25 5.6875 6.25 3 6 C1.02389614 3.95575462 0 2.8823175 0 0 Z " fill="#26233B" transform="translate(202,221)"/>
<path d="M0 0 C3.46941546 0.45822468 6.67395049 0.89131683 10 2 C9.67 3.32 9.34 4.64 9 6 C6.69 6 4.38 6 2 6 C1.34 4.02 0.68 2.04 0 0 Z " fill="#1E2034" transform="translate(156,221)"/>
<path d="M0 0 C3.96 0 7.92 0 12 0 C11.67 0.66 11.34 1.32 11 2 C10.07767578 1.98259766 10.07767578 1.98259766 9.13671875 1.96484375 C7.92435547 1.95130859 7.92435547 1.95130859 6.6875 1.9375 C5.88699219 1.92589844 5.08648437 1.91429687 4.26171875 1.90234375 C1.83138666 1.90342145 1.83138666 1.90342145 -1 3 C-0.67 2.01 -0.34 1.02 0 0 Z " fill="#B94A95" transform="translate(232,278)"/>
</svg>
